<?xml version="1.0" encoding="utf-8"?>
<!-- Generator: Adobe Illustrator 19.0.0, SVG Export Plug-In . SVG Version: 6.00 Build 0)  -->
<svg version="1.1" id="Camada_1" xmlns="http://www.w3.org/2000/svg" xmlns:xlink="http://www.w3.org/1999/xlink" x="0px" y="0px"
	 viewBox="0 0 96 96" style="enable-background:new 0 0 96 96;" xml:space="preserve">
<style type="text/css">
	.st0{fill:url(#XMLID_3_);}
	.st1{fill:url(#XMLID_4_);}
</style>
<g id="XMLID_2_">
	<radialGradient id="XMLID_3_" cx="48" cy="48" r="48" gradientUnits="userSpaceOnUse">
		<stop  offset="0" style="stop-color:#827590"/>
		<stop  offset="1" style="stop-color:#662D91"/>
	</radialGradient>
	<circle id="XMLID_11_" class="st0" cx="48" cy="48" r="48"/>
	<linearGradient id="XMLID_4_" gradientUnits="userSpaceOnUse" x1="15.2069" y1="71.2069" x2="71.2069" y2="15.2069">
		<stop  offset="0" style="stop-color:#19B7B9"/>
		<stop  offset="0.9944" style="stop-color:#EDFE6E"/>
	</linearGradient>
	<path id="XMLID_17_" class="st1" d="M71,27v2.5l4.5,1.7L64.9,58.9l-1.7-4.2l-9.9-24l4.6-1.3V27H40v2.3c0-0.4-1.4-1-2.6-1.3
		c-2-0.5-4.2-1-7.3-1H13v2.4l3.6,1.1c0.4,0.1,0.8,0.3,1,0.6c0.2,0.3,0.4,0.7,0.4,1.1v31.7c0,0.4-0.2,0.8-0.5,1.1
		c-0.2,0.3-0.4,0.5-0.9,0.6L13,66.8V69h17.8c1.4,0,2.8-0.3,4.2-0.4c1.4-0.1,2.8-0.5,4.1-0.9c1.3-0.4,2.5-0.9,3.6-1.5
		c1.1-0.6,2.1-1.3,2.9-2.2c0.8-0.9,1.5-1.9,2-3.1c0.5-1.2,0.7-2.6,0.7-4.1c0-1.4-0.3-2.8-0.9-3.9c-0.6-1.2-1.4-2.2-2.5-3
		c-1.1-0.8-2.3-1.5-3.8-2c-1.5-0.5-3.1-0.8-5-0.9c1.4-0.4,2.8-0.9,3.9-1.5c1.2-0.6,2.2-1.4,3-2.2c0.8-0.9,1.4-1.8,1.9-2.9
		c0.4-1.1,0.7-2.3,0.7-3.6c0-1.2-0.2-2.3-0.7-3.4c-0.4-1.1-1.2-2.1-2.4-2.9c-0.3-0.2-0.5-0.4-0.8-0.5l2,0.7c0.4,0.2,0.8,0.4,1.1,0.7
		c0.3,0.3,0.5,0.9,0.7,1.2L59.9,69h4l3.3-6.8l11.6-29.5c0.2-0.4,0.4-0.8,0.7-1.1c0.3-0.3,0.5-0.6,0.9-0.8l2.7-1.3V27H71z M36.9,51
		c0.7,0.7,1.3,1.6,1.7,2.7c0.4,1.1,0.5,2.4,0.5,4c0,2.7-0.6,4.5-1.9,5.7c-1.3,1.2-3.2,1.6-5.8,1.6H25V49h5c1.6,0,2.9,0.2,4.1,0.5
		C35.2,49.8,36.1,50.3,36.9,51z M36.2,41.9c-0.3,0.9-0.8,1.6-1.4,2.2c-0.6,0.6-1.5,0.6-2.5,0.9c-1.1,0.3-2.4,0-3.9,0H25V31h4
		c2.5,0,4.4,0.5,5.7,1.8c1.3,1.3,1.9,3.3,1.9,6.2C36.6,40.1,36.5,41,36.2,41.9z"/>
</g>
</svg>
