<?xml version="1.0" encoding="utf-8"?>
<!-- Generator: Adobe Illustrator 19.0.0, SVG Export Plug-In . SVG Version: 6.00 Build 0)  -->
<svg version="1.1" id="Camada_1" xmlns="http://www.w3.org/2000/svg" xmlns:xlink="http://www.w3.org/1999/xlink" x="0px" y="0px"
	 viewBox="0 0 100 100" style="enable-background:new 0 0 100 100;" xml:space="preserve">
<style type="text/css">
	.st0{fill:#edfe6e;}
</style>
<g id="XMLID_394_">
	<path id="XMLID_395_" class="st0" d="M40.2,72.1c-0.7,1.7-1.3,3.6-2.2,5.4c-0.2,0.5-0.8,1.1-1.3,1.3c-4.5,1.9-9.1,0.6-12.2-3.2
		c-1.2-1.5-2.2-3.1-3.5-4.4c-2.4-2.3-5.1-2.6-7.6-1.1c0.5,0.6,1,1.4,1.6,1.7c2.8,1.7,4.5,4.3,5.7,7.1c1.9,4.7,5.5,6.6,10.2,6.8
		c2.1,0.1,4.2,0,6.6,0c0,2.9,0.2,6.1-0.1,9.2c-0.1,1.6-1.9,2.1-4.1,1.4c-5.6-1.9-10.7-4.8-15.2-8.7c-9-7.7-14.8-17.4-16.9-29.1
		C-0.8,46.9,1,35.6,7.2,25.3C17.2,8.7,32.1,0.2,51.4,0.6c23,0.5,42.1,16.7,47,39.3c5.2,23.6-8.9,48.7-31.9,56.7
		c-2.7,0.9-4.1,0-4.1-2.8c0-3.5,0-7.1,0.1-10.6c0.1-4-0.3-7.8-3.1-11.1c2.2-0.5,4.1-0.8,6.1-1.3c9-2.2,14.2-8,15.7-17.1
		c1.1-6.7,0.6-13.1-3.8-18.6c-0.4-0.5-0.3-1.5-0.3-2.3c-0.1-3.1,0-6.3-0.2-9.4c-0.1-2.2-1.5-3.1-3.6-2.3c-3,1.2-5.9,2.6-8.9,3.7
		c-1.3,0.5-2.9,1.1-4.2,0.8c-6.7-1.6-13.4-1.5-20.1,0c-1.6,0.4-2.8,0-4.3-0.7c-2.8-1.4-5.7-2.7-8.7-3.7c-2.9-0.9-3.3-0.7-3.8,2.3
		c-0.5,2.8-0.5,5.8-0.3,8.7c0.1,1.4,0.2,2.5-0.8,3.7c-6.4,7.5-5.4,27.9,8.1,33.4C33.6,70.4,37.1,71.1,40.2,72.1z"/>
</g>
</svg>
