<?xml version="1.0" encoding="utf-8"?>
<!-- Generator: Adobe Illustrator 19.0.0, SVG Export Plug-In . SVG Version: 6.00 Build 0)  -->
<svg version="1.1" id="Camada_1" xmlns="http://www.w3.org/2000/svg" xmlns:xlink="http://www.w3.org/1999/xlink" x="0px" y="0px"
	 viewBox="0 0 1274 1221" style="enable-background:new 0 0 1274 1221;" xml:space="preserve">
<style type="text/css">
	.st0{fill:#1ED760;}
</style>
<g id="XMLID_1_">
	<circle id="XMLID_14_" class="st0" cx="1077.2" cy="194.6" r="193.6"/>
	<circle id="XMLID_15_" class="st0" cx="1068.8" cy="902.1" r="83.5"/>
	<g id="XMLID_17_">
		<path id="XMLID_22_" class="st0" d="M454.5,1038.4c-30.6-5.4-54.4-31.4-55.7-63.7c-1.2-30.2,17.6-56.6,44.6-66.3
			c-34.6-87.9-121.9-148.4-221.6-144.3C96,769.3-1.8,875.5,3.4,1001.3s111.4,223.6,237.2,218.5
			C347.2,1215.4,433.7,1138.4,454.5,1038.4z"/>
		<path id="XMLID_20_" class="st0" d="M454.5,1038.4c4.7,0.8,9.5,1.2,14.5,1c37.2-1.5,66.2-33,64.6-70.2s-33-66.2-70.2-64.6
			c-7,0.3-13.7,1.6-20,3.9c9.1,23.1,14.5,48,15.6,74.2C459.8,1001.8,458.2,1020.4,454.5,1038.4z"/>
	</g>
</g>
</svg>
