<?xml version="1.0" encoding="utf-8"?>
<!-- Generator: Adobe Illustrator 19.0.0, SVG Export Plug-In . SVG Version: 6.00 Build 0)  -->
<svg version="1.1" id="Camada_1" xmlns="http://www.w3.org/2000/svg" xmlns:xlink="http://www.w3.org/1999/xlink" x="0px" y="0px"
	 viewBox="0 0 2420 1503" style="enable-background:new 0 0 2420 1503;" xml:space="preserve">
<style type="text/css">
	.st0{fill:#1ED760;}
</style>
<g id="XMLID_1_">
	<circle id="XMLID_10_" class="st0" cx="2084.2" cy="332.3" r="332.3"/>
	<g id="XMLID_2_">
		<path id="XMLID_11_" class="st0" d="M596.3,564.1c-13.8,63.4-70.2,110.8-137.8,110.8c-63.2,0-116.7-41.6-134.6-98.9
			C137.4,640.7,3.5,817.9,3.5,1026.4c0,263.2,213.4,476.6,476.6,476.6s476.6-213.4,476.6-476.6C956.7,803.2,803.3,615.9,596.3,564.1
			z"/>
		<path id="XMLID_12_" class="st0" d="M596.3,564.1c2.1-9.7,3.3-19.8,3.3-30.2c0-77.9-63.1-141-141-141s-141,63.1-141,141
			c0,14.7,2.2,28.8,6.4,42.2c49-17,101.5-26.2,156.2-26.2C520.2,549.8,559.1,554.8,596.3,564.1z"/>
	</g>
	<circle id="XMLID_9_" class="st0" cx="1534.3" cy="856.7" r="68.1"/>
</g>
</svg>
