<?xml version="1.0" encoding="utf-8"?>
<!-- Generator: Adobe Illustrator 19.0.0, SVG Export Plug-In . SVG Version: 6.00 Build 0)  -->
<svg version="1.1" id="Camada_1" xmlns="http://www.w3.org/2000/svg" xmlns:xlink="http://www.w3.org/1999/xlink" x="0px" y="0px"
	 viewBox="0 0 676 901" style="enable-background:new 0 0 676 901;" xml:space="preserve">
<style type="text/css">
	.st0{fill:#1ED760;}
</style>
<g id="XMLID_1_">
	<circle id="XMLID_48_" class="st0" cx="572.2" cy="640.1" r="57.5"/>
	<circle id="XMLID_27_" class="st0" cx="540.7" cy="135.6" r="135"/>
	<g id="XMLID_4_">
		<path id="XMLID_6_" class="st0" d="M314,774.2c-21.2-3.7-37.8-21.8-38.7-44.3c-0.9-21,12.2-39.3,31-46.1
			c-24-61.1-84.7-103.1-154-100.3C64.8,587.1-3.2,660.9,0.4,748.4s77.4,155.5,164.9,151.9C239.4,897.2,299.6,843.7,314,774.2z"/>
		<path id="XMLID_5_" class="st0" d="M314,774.2c3.3,0.6,6.6,0.8,10.1,0.7c25.9-1.1,46-22.9,44.9-48.8c-1.1-25.9-22.9-46-48.8-44.9
			c-4.9,0.2-9.6,1.1-13.9,2.7c6.3,16,10.1,33.4,10.9,51.6C317.7,748.7,316.6,761.7,314,774.2z"/>
	</g>
</g>
</svg>
